<svg width="240" height="57" viewBox="0 0 240 57" fill="none" xmlns="http://www.w3.org/2000/svg">
<g clip-path="url(#clip0_12_200)">
<path d="M73.0049 11.7345C85.9124 11.7345 87.5589 20.3402 84.5889 25.6437C81.9199 30.4098 74.1954 34.1215 66.8184 34.6379C69.1707 37.5931 72.7114 38.4969 77.4209 37.8742C81.9141 37.2798 85.0169 35.5765 87.7158 33.4797C91.8 30.3065 91.5887 29.9107 91.5674 23.7072C91.5498 18.6666 90.3759 12.255 93.4229 12.255C101.51 12.255 100.229 11.7228 100.229 17.4601L102.082 15.3761C105.292 12.0182 109.436 12.255 113.84 12.255V18.5011C97.1728 18.5012 100.229 27.2447 100.229 44.5275H91.5664V38.8019C88.4708 40.5464 89.805 40.6299 84.1582 42.9787C78.4599 45.3497 72.5539 45.8213 66.4316 43.8127C63.3029 42.786 63.4474 42.1215 61.251 40.8839C58.5315 42.416 50.4418 48.2044 43.8555 43.0265C37.7961 38.2624 47.5063 37.515 34.0283 31.5148C33.9552 34.2696 32.2245 37.4505 30.8369 39.2394C29.1668 41.3922 27.2245 42.95 23.8379 43.7756C6.41442 48.0218 3.24945 24.2277 25.3672 24.2277C22.4449 13.6758 8.66113 16.7228 8.66113 29.9533V56.4992H0V12.256H8.66113V16.4191C10.1599 15.4942 12.4822 11.7355 18.5596 11.7355C34.757 11.7355 32.5666 23.5872 34.8945 25.5802C35.4913 26.0911 40.4909 28.2032 41.4512 28.3918V12.256H50.1133V35.1574C50.1133 40.5832 55.4128 38.2658 58.1562 36.7199C53.3467 28.2863 57.444 11.7346 73.0049 11.7345ZM209.738 20.5841C209.739 12.601 225.884 8.51505 234.778 14.6125C237.69 16.6088 238.499 18.7634 239.436 22.1457H230.773C228.902 15.3883 217.781 16.0818 217.781 21.6252C217.781 27.1684 239.435 21.243 239.436 35.6789C239.436 48.0153 209.978 49.048 208.501 34.1173H217.162C217.818 40.7473 231.393 40.907 231.393 35.1584C231.392 31.2923 222.826 31.1448 218.782 30.1525C211.425 28.3475 209.835 25.744 209.743 21.0451L209.738 20.5841ZM139.207 22.1457C140.529 8.78385 170.761 7.07796 170.761 23.7072V44.5275H162.718V39.8429C159.707 42.7571 157.535 45.048 150.962 45.048C144.389 45.0479 138.588 41.2096 138.588 35.6789C138.588 23.7207 152 25.2687 162.718 25.2687C162.601 20.8329 160.758 17.9816 155.293 17.9816C150.313 17.9817 149.953 18.8334 147.869 22.1457H139.207ZM183.633 14.757C191.027 8.73794 207.264 11.1002 207.264 26.3097C207.264 47.7354 209.957 44.5275 198.602 44.5275V28.3918C198.602 13.622 181.897 17.6291 181.896 24.7482V44.5275H173.235V12.256H181.278V16.4201C183.546 15.7296 181.539 16.4609 183.633 14.757ZM139.825 6.52946C133.191 7.83006 132.8 6.34616 131.163 12.256C140.531 12.256 139.825 10.9635 139.825 17.9816C133.785 17.9816 131.163 17.2759 131.163 19.5431V44.5285H122.502V17.9816H116.314V12.256H122.502C122.765 2.30898 130.637 0.804856 139.825 0.804848V6.52946ZM162.718 30.4738C156.391 30.4738 146.631 29.5062 146.631 34.6379C146.631 35.4579 147.429 37.0975 148.014 37.6388C149.609 39.1135 152.051 38.8019 154.675 38.8019C159.749 38.8017 162.314 34.5556 162.718 30.4738ZM25.9854 29.9533C11.3641 29.9533 19.0186 43.2507 23.9629 36.0636C25.5006 33.8283 24.9181 31.8247 25.9854 29.9533ZM73.625 17.4611C67.3497 17.4612 64.9629 23.936 64.9629 29.4328C69.0655 28.6287 73.6477 27.5571 75.9697 25.1574C78.2676 22.7811 78.8931 17.4611 73.625 17.4611ZM40.2158 4.96891C40.2158 -0.931379 51.352 -1.2194 51.3525 5.48844C51.3525 11.3258 40.2163 12.223 40.2158 4.96891Z" fill="white"/>
</g>
<defs>
<clipPath id="clip0_12_200">
<rect width="240" height="56" fill="white" transform="translate(0 0.5)"/>
</clipPath>
</defs>
</svg>
